<svg xmlns="http://www.w3.org/2000/svg" viewBox="0 0 512 512">
  <rect width="512" height="512" rx="104" fill="#050505"/>
  <path d="M50 116h412v292H50z" fill="#f7f7f4" stroke="#050505" stroke-width="24"/>
  <path d="M50 116h412v88H50z" fill="#e60012" stroke="#050505" stroke-width="24"/>
  <path d="M90 68v88M422 68v88" stroke="#f7f7f4" stroke-width="38" stroke-linecap="round"/>
  <path d="m82 236 74-26 60 24 76-32 62 26 76-30" fill="none" stroke="#050505" stroke-width="18" stroke-linecap="round" stroke-linejoin="round"/>
  <path d="M104 316h92M104 368h164" stroke="#050505" stroke-width="24" stroke-linecap="round"/>
  <path d="M318 250h92v118h-92z" fill="#050505"/>
  <path d="m304 236 128 146M434 238 304 382" stroke="#e60012" stroke-width="22"/>
  <path d="M352 268h28v72h-28z" fill="#f7f7f4"/>
  <path d="M80 118 210 52 164 116z" fill="#f4e62a" stroke="#050505" stroke-width="16"/>
</svg>
