<svg xmlns="http://www.w3.org/2000/svg" viewBox="0 0 512 512">
  <defs>
    <filter id="s" x="-20%" y="-20%" width="140%" height="140%">
      <feDropShadow dx="16" dy="18" stdDeviation="0" flood-color="#000"/>
    </filter>
    <linearGradient id="r" x1="0" x2="1" y1="0" y2="1">
      <stop offset="0" stop-color="#ff3c3c"/>
      <stop offset=".48" stop-color="#e60012"/>
      <stop offset="1" stop-color="#7b0008"/>
    </linearGradient>
  </defs>
  <rect width="512" height="512" rx="106" fill="#050505"/>
  <path d="M58 226 8 145l92 19 14-97 70 73 63-105 37 113 109-51-36 102 118 5-91 72 84 78-113 8 28 111-102-62-48 92-38-109-111 39 52-101z" fill="#101010" stroke="#fff" stroke-width="14" filter="url(#s)"/>
  <path d="M64 262c49-86 119-130 197-130s145 44 200 130c-55 86-122 130-200 130S113 348 64 262z" fill="url(#r)" stroke="#0b0b0b" stroke-width="20"/>
  <path d="M117 262c41-48 89-72 144-72s102 24 143 72c-41 48-88 72-143 72s-103-24-144-72z" fill="#fff"/>
  <path d="m259 179 25 53 58 7-43 40 11 57-51-28-51 28 11-57-43-40 58-7z" fill="#050505"/>
  <path d="M93 108 45 75m372 39 47-41M94 414l-47 32m369-30 52 31" stroke="#e60012" stroke-width="22" stroke-linecap="round"/>
</svg>
